# grass-stalk.obj with alternate rows dropped
o Plane
v -0.060289 -0.000477 0.000000
v 0.065903 -0.000477 0.000000
v -0.050858 0.421288 0.000000
v 0.054760 0.421288 0.000000
v -0.029974 0.817156 0.000000
v 0.028739 0.817156 0.000000
v -0.001473 1.039178 0.000000
vn 0.7730 0.0000 0.6344
vn -0.7730 0.0000 0.6344
vn 0.4714 0.0000 0.8819
vn -0.4714 0.0000 0.8819
vn -0.0980 0.0000 0.9952
vt 0.000035 0.000035
vt 0.121405 0.000035
vt 0.009105 0.405684
vt 0.110688 0.405684
vt 0.029191 0.786426
vt 0.085661 0.786426
vt 0.056603 0.999965
s 1
f 4/4/1 3/3/2 1/1/2 2/2/1
f 6/6/3 5/5/4 3/3/2 4/4/1
f 5/5/4 6/6/3 7/7/5
