# 3-blade clump built from grass-stalk-simple template
o Clump
v -0.123400 0.000000 0.050000
v 0.129000 0.000000 0.050000
v -0.001500 1.039200 0.050000
v 0.000600 0.000000 0.056200
v -0.113100 0.000000 -0.140500
v -0.054300 0.935300 -0.038900
v 0.122900 0.000000 -0.152500
v -0.016000 0.000000 0.087900
v 0.055800 1.143100 -0.036400
vn 0.0000 0.0000 1.0000
vn 0.8660 0.0000 -0.5000
vn -0.8660 0.0000 -0.5000
vt 0.121405 0.000035
vt 0.056603 0.999965
vt 0.000035 0.000035
s 1
f 2/1/1 3/2/1 1/3/1
f 5/1/2 6/2/2 4/3/2
f 8/1/3 9/2/3 7/3/3
