<?xml version="1.0" encoding="iso-8859-1"?>
<!-- Uploaded to: SVG Repo, www.svgrepo.com, Generator: SVG Repo Mixer Tools -->
<!DOCTYPE svg PUBLIC "-//W3C//DTD SVG 1.1//EN" "http://www.w3.org/Graphics/SVG/1.1/DTD/svg11.dtd">
<svg fill="#808080" version="1.1" id="Capa_1" xmlns="http://www.w3.org/2000/svg" xmlns:xlink="http://www.w3.org/1999/xlink" 
	 width="800px" height="800px" viewBox="0 0 453.018 453.018"
	 xml:space="preserve">
<g>
	<path d="M405.542,57.585V0H47.475v57.579H65.02v25.188H47.475v57.58h358.067v-57.58h-20.241V57.579h20.241V57.585z M111.34,116.756
		H86.451V92.408h24.889V116.756z M111.34,82.02H86.451V57.675h24.889V82.02z M111.34,47.93H86.451V23.584h24.889V47.93z
		 M148.135,116.756h-24.886V92.408h24.886V116.756z M148.135,82.02h-24.886V57.675h24.886V82.02z M148.135,47.93h-24.886V23.584
		h24.886V47.93z M184.386,116.756h-24.884V92.408h24.884V116.756z M184.386,82.02h-24.884V57.675h24.884V82.02z M184.386,47.93
		h-24.884V23.584h24.884V47.93z M220.267,116.756h-24.887V92.408h24.887V116.756z M220.267,82.02h-24.887V57.675h24.887V82.02z
		 M220.267,47.93h-24.887V23.584h24.887V47.93z M257.059,116.756h-24.883V92.408h24.883V116.756z M257.059,82.02h-24.883V57.675
		h24.883V82.02z M257.059,47.93h-24.883V23.584h24.883V47.93z M293.31,116.756h-24.887V92.408h24.887V116.756z M293.31,82.02
		h-24.887V57.675h24.887V82.02z M293.31,47.93h-24.887V23.584h24.887V47.93z M348.994,116.056H316.86v-14.848h32.134V116.056z
		 M332.806,74.378c-14.171,0-25.652-11.483-25.652-25.636c0-14.154,11.481-25.64,25.652-25.64c14.156,0,25.639,11.48,25.639,25.64
		C358.444,62.901,346.968,74.378,332.806,74.378z M348.994,48.581c0,8.875-7.19,16.071-16.062,16.071
		c-8.876,0-16.071-7.196-16.071-16.071c0-8.871,7.195-16.061,16.071-16.061C341.804,32.52,348.994,39.71,348.994,48.581z
		 M47.475,215.356H65.02v25.188H47.475v57.581h358.067v-57.587h-20.241v-25.182h20.241v-57.579H47.475V215.356z M348.994,273.83
		H316.86v-14.847h32.134V273.83z M332.806,180.879c14.156,0,25.639,11.483,25.639,25.636c0,14.159-11.477,25.639-25.639,25.639
		c-14.171,0-25.652-11.479-25.652-25.639C307.164,192.363,318.635,180.879,332.806,180.879z M268.423,181.355h24.887v24.354h-24.887
		V181.355z M268.423,215.446h24.887V239.8h-24.887V215.446z M268.423,250.19h24.887v24.351h-24.887V250.19z M232.176,181.355h24.883
		v24.354h-24.883V181.355z M232.176,215.446h24.883V239.8h-24.883V215.446z M232.176,250.19h24.883v24.351h-24.883V250.19z
		 M195.379,181.355h24.887v24.354h-24.887V181.355z M195.379,215.446h24.887V239.8h-24.887V215.446z M195.379,250.19h24.887v24.351
		h-24.887V250.19z M159.502,181.355h24.884v24.354h-24.884V181.355z M159.502,215.446h24.884V239.8h-24.884V215.446z
		 M159.502,250.19h24.884v24.351h-24.884V250.19z M123.242,181.355h24.888v24.354h-24.888V181.355z M123.242,215.446h24.888V239.8
		h-24.888V215.446z M123.242,250.19h24.888v24.351h-24.888V250.19z M86.451,181.355h24.889v24.354H86.451V181.355z M86.451,215.446
		h24.889V239.8H86.451V215.446z M86.451,250.19h24.889v24.351H86.451V250.19z M316.86,206.358c0-8.871,7.195-16.059,16.071-16.059
		c8.872,0,16.062,7.188,16.062,16.059c0,8.869-7.19,16.071-16.062,16.071C324.056,222.423,316.86,215.228,316.86,206.358z
		 M47.475,370.247H65.02v25.191H47.475v57.579h358.067v-57.579h-20.241v-25.191h20.241v-57.578H47.475V370.247z M348.994,428.72
		H316.86v-14.84h32.134V428.72z M332.806,335.772c14.156,0,25.639,11.48,25.639,25.642c0,14.151-11.477,25.643-25.639,25.643
		c-14.171,0-25.652-11.48-25.652-25.643C307.164,347.253,318.635,335.772,332.806,335.772z M268.423,336.256h24.887v24.35h-24.887
		V336.256z M268.423,370.341h24.887v24.344h-24.887V370.341z M268.423,405.081h24.887v24.345h-24.887V405.081z M232.176,336.256
		h24.883v24.35h-24.883V336.256z M232.176,370.341h24.883v24.344h-24.883V370.341z M232.176,405.081h24.883v24.345h-24.883V405.081z
		 M195.379,336.256h24.887v24.35h-24.887V336.256z M195.379,370.341h24.887v24.344h-24.887V370.341z M195.379,405.081h24.887v24.345
		h-24.887V405.081z M159.502,336.256h24.884v24.35h-24.884V336.256z M159.502,370.341h24.884v24.344h-24.884V370.341z
		 M159.502,405.081h24.884v24.345h-24.884V405.081z M123.242,336.256h24.888v24.35h-24.888V336.256z M123.242,370.341h24.888v24.344
		h-24.888V370.341z M123.242,405.081h24.888v24.345h-24.888V405.081z M86.451,336.256h24.889v24.35H86.451V336.256z M86.451,370.341
		h24.889v24.344H86.451V370.341z M86.451,405.081h24.889v24.345H86.451V405.081z M316.86,361.25c0-8.87,7.195-16.053,16.071-16.053
		c8.872,0,16.062,7.183,16.062,16.053c0,8.871-7.19,16.071-16.062,16.071C324.056,377.321,316.86,370.121,316.86,361.25z"/>
</g>
</svg>