<?xml version="1.0" encoding="utf-8"?>
<svg fill="currentColor" version="1.2" baseProfile="tiny" id="Layer_1"
	xmlns="http://www.w3.org/2000/svg" xmlns:xlink="http://www.w3.org/1999/xlink"
	viewBox="0 0 256 256" xml:space="preserve">
<path id="XMLID_11_" d="M88.7,47.3c0-22,17.8-39.9,39.9-39.9c22,0,39.9,17.8,39.9,39.9c0,22-17.8,40-39.9,40
	C106.5,87.2,88.7,69.3,88.7,47.3z M256,205.7c0,12.6-10.3,22.8-22.8,22.8c-3,0-5.9-0.6-8.4-1.7l-35.7-9.9V252H65v-35.1l-35,9.9
	c-2.5,1-5,1.6-8,1.6c-12.6,0-22.7-10.2-22.7-22.8c0-4.7,1.4-9.1,4-12.7l58.9-80.7c0,0,7.7-14.2,25.9-15.2h79.3
	c18.2,1,25.9,15.2,25.9,15.2l58.9,80.8C254.6,196.7,256,201,256,205.7z M189,124.3l-62,20.1l-62-20.1v47.4l4.7-1.5c0,0-0.1,0,0,0
	L69,170v-6.5l54,17v6.5l-25.1-8c6.8,11,3.3,27.6-15.3,33.1l-1,0.2l46.1,15.3l46-15.3l-1-0.2c-2.3-0.7-4.3-1.5-6.1-2.5L132,220.7
	v-6.5l28.5-9.1c-1.3-1.3-2.5-2.7-3.3-4.2L132,209v-6.5l22.8-7.3c-0.4-1.7-0.7-3.4-0.7-5.1l-22.2,7.1v-6.5l23.4-7.5
	c0.8-2.3,1.9-4.4,3.4-6.4l-26.7,8.6V179l53-17v6.5l-3,0.9c0.9,0.2,1.9,0.4,2.8,0.7l4.1,1.5V124.3z M69,146.5l54,17V157l-54-17V146.5
	z M69,158.2l54,17v-6.5l-54-17V158.2z M185,136.2l-53,17v20.5l53-17V136.2z"/>
</svg>