<svg xmlns="http://www.w3.org/2000/svg" xmlns:xlink="http://www.w3.org/1999/xlink" width="100" zoomAndPan="magnify" viewBox="0 0 75 30.000001" height="40" preserveAspectRatio="xMidYMid meet" version="1.0"><defs><g/><clipPath id="fd6328a598"><path d="M 33 17 L 46.542969 17 L 46.542969 26.128906 L 33 26.128906 Z M 33 17 " clip-rule="nonzero"/></clipPath><clipPath id="753ca64e24"><path d="M 28.398438 18 L 30 18 L 30 20 L 28.398438 20 Z M 28.398438 18 " clip-rule="nonzero"/></clipPath><clipPath id="b369ea2127"><path d="M 28.398438 20 L 30 20 L 30 23 L 28.398438 23 Z M 28.398438 20 " clip-rule="nonzero"/></clipPath><clipPath id="85c598a97f"><path d="M 36 11.613281 L 39 11.613281 L 39 13 L 36 13 Z M 36 11.613281 " clip-rule="nonzero"/></clipPath></defs><path fill="#7ed957" d="M 36.5625 23.328125 C 36.535156 23.300781 36.492188 23.3125 36.484375 23.347656 L 36.132812 24.65625 C 36.117188 24.71875 36.175781 24.773438 36.238281 24.75 L 37.386719 24.277344 C 37.417969 24.265625 37.425781 24.226562 37.402344 24.203125 L 36.5625 23.328125 " fill-opacity="1" fill-rule="nonzero"/><g clip-path="url(#fd6328a598)"><path fill="#7ed957" d="M 46.132812 17.242188 C 46.113281 17.242188 46.089844 17.242188 46.066406 17.242188 L 44.625 17.378906 L 33.410156 18.957031 C 33.253906 18.980469 33.183594 19.175781 33.296875 19.289062 L 34.878906 20.933594 L 35.273438 21.34375 L 35.5 24.261719 C 35.503906 24.332031 35.605469 24.34375 35.625 24.273438 L 36.160156 22.269531 L 36.167969 22.246094 L 42.363281 19.28125 C 42.4375 19.246094 42.527344 19.277344 42.566406 19.351562 C 42.601562 19.421875 42.574219 19.511719 42.503906 19.550781 L 36.785156 22.84375 L 36.761719 22.929688 L 39.792969 26.042969 C 39.875 26.128906 40.019531 26.121094 40.089844 26.023438 L 46.253906 17.859375 L 46.34375 17.742188 C 46.488281 17.542969 46.359375 17.269531 46.132812 17.242188 " fill-opacity="1" fill-rule="nonzero"/></g><path fill="#7ed957" d="M 34.6875 24.621094 C 34.519531 24.648438 34.328125 24.664062 34.117188 24.664062 C 34.109375 24.664062 34.101562 24.660156 34.09375 24.664062 C 33.945312 24.664062 33.824219 24.78125 33.824219 24.929688 C 33.824219 25.078125 33.941406 25.195312 34.089844 25.199219 C 34.097656 25.199219 34.109375 25.199219 34.117188 25.199219 C 34.355469 25.199219 34.578125 25.183594 34.773438 25.148438 C 34.917969 25.125 35.015625 24.988281 34.992188 24.84375 C 34.96875 24.695312 34.832031 24.597656 34.6875 24.621094 " fill-opacity="1" fill-rule="nonzero"/><path fill="#7ed957" d="M 30.621094 15.480469 C 30.691406 15.480469 30.761719 15.453125 30.8125 15.398438 C 31.078125 15.121094 31.375 14.859375 31.699219 14.613281 C 31.816406 14.523438 31.839844 14.355469 31.75 14.238281 C 31.660156 14.121094 31.492188 14.097656 31.375 14.1875 C 31.03125 14.449219 30.710938 14.730469 30.429688 15.027344 C 30.328125 15.132812 30.328125 15.300781 30.4375 15.402344 C 30.488281 15.453125 30.554688 15.480469 30.621094 15.480469 " fill-opacity="1" fill-rule="nonzero"/><path fill="#7ed957" d="M 32.558594 13.992188 C 32.605469 13.992188 32.648438 13.980469 32.691406 13.957031 C 33.023438 13.765625 33.382812 13.585938 33.761719 13.414062 C 33.894531 13.355469 33.957031 13.195312 33.894531 13.0625 C 33.835938 12.925781 33.675781 12.867188 33.542969 12.925781 C 33.148438 13.101562 32.773438 13.292969 32.425781 13.492188 C 32.296875 13.566406 32.253906 13.730469 32.328125 13.859375 C 32.375 13.945312 32.464844 13.992188 32.558594 13.992188 " fill-opacity="1" fill-rule="nonzero"/><path fill="#7ed957" d="M 29.171875 17.488281 C 29.207031 17.503906 29.238281 17.507812 29.273438 17.507812 C 29.378906 17.507812 29.476562 17.445312 29.519531 17.34375 C 29.671875 16.984375 29.859375 16.636719 30.074219 16.3125 C 30.15625 16.191406 30.125 16.023438 30 15.941406 C 29.878906 15.859375 29.714844 15.894531 29.632812 16.015625 C 29.398438 16.367188 29.195312 16.746094 29.03125 17.128906 C 29.03125 17.132812 29.027344 17.140625 29.027344 17.144531 C 28.972656 17.28125 29.039062 17.433594 29.171875 17.488281 " fill-opacity="1" fill-rule="nonzero"/><path fill="#7ed957" d="M 34.789062 12.988281 C 34.820312 12.988281 34.847656 12.980469 34.878906 12.972656 C 35.242188 12.84375 35.628906 12.722656 36.03125 12.605469 C 36.171875 12.566406 36.253906 12.417969 36.214844 12.277344 C 36.175781 12.132812 36.027344 12.050781 35.886719 12.089844 C 35.472656 12.210938 35.074219 12.335938 34.703125 12.464844 C 34.5625 12.515625 34.488281 12.667969 34.539062 12.808594 C 34.578125 12.917969 34.679688 12.988281 34.789062 12.988281 " fill-opacity="1" fill-rule="nonzero"/><path fill="#7ed957" d="M 30.769531 23.695312 C 30.449219 23.46875 30.164062 23.207031 29.929688 22.914062 C 29.835938 22.800781 29.667969 22.78125 29.554688 22.875 C 29.441406 22.96875 29.421875 23.136719 29.515625 23.25 C 29.78125 23.582031 30.101562 23.878906 30.464844 24.132812 C 30.511719 24.167969 30.5625 24.183594 30.617188 24.183594 C 30.699219 24.183594 30.785156 24.144531 30.835938 24.066406 C 30.917969 23.945312 30.890625 23.78125 30.769531 23.695312 " fill-opacity="1" fill-rule="nonzero"/><path fill="#7ed957" d="M 32.917969 24.554688 C 32.527344 24.484375 32.148438 24.378906 31.792969 24.238281 C 31.65625 24.1875 31.5 24.253906 31.445312 24.390625 C 31.394531 24.53125 31.460938 24.683594 31.597656 24.738281 C 31.984375 24.890625 32.398438 25.007812 32.828125 25.082031 C 32.84375 25.085938 32.859375 25.085938 32.875 25.085938 C 33 25.085938 33.113281 24.996094 33.136719 24.863281 C 33.160156 24.71875 33.0625 24.582031 32.917969 24.554688 " fill-opacity="1" fill-rule="nonzero"/><g clip-path="url(#753ca64e24)"><path fill="#7ed957" d="M 28.703125 19.890625 C 28.707031 19.890625 28.710938 19.890625 28.71875 19.890625 C 28.859375 19.890625 28.976562 19.78125 28.984375 19.636719 C 29.003906 19.253906 29.0625 18.859375 29.152344 18.472656 C 29.1875 18.328125 29.097656 18.183594 28.953125 18.148438 C 28.8125 18.117188 28.667969 18.203125 28.632812 18.347656 C 28.535156 18.769531 28.472656 19.191406 28.453125 19.609375 C 28.441406 19.757812 28.554688 19.882812 28.703125 19.890625 " fill-opacity="1" fill-rule="nonzero"/></g><g clip-path="url(#b369ea2127)"><path fill="#7ed957" d="M 29.039062 20.808594 C 29.015625 20.660156 28.878906 20.5625 28.734375 20.585938 C 28.589844 20.605469 28.488281 20.742188 28.511719 20.890625 C 28.578125 21.324219 28.695312 21.742188 28.855469 22.132812 C 28.898438 22.234375 28.996094 22.296875 29.101562 22.296875 C 29.136719 22.296875 29.171875 22.289062 29.203125 22.277344 C 29.339844 22.21875 29.40625 22.0625 29.347656 21.925781 C 29.203125 21.578125 29.097656 21.203125 29.039062 20.808594 " fill-opacity="1" fill-rule="nonzero"/></g><g clip-path="url(#85c598a97f)"><path fill="#7ed957" d="M 37.148438 12.3125 C 37.167969 12.3125 37.191406 12.308594 37.210938 12.304688 C 37.417969 12.257812 37.625 12.210938 37.828125 12.167969 C 37.972656 12.136719 38.066406 11.996094 38.035156 11.851562 C 38.007812 11.707031 37.863281 11.613281 37.71875 11.644531 C 37.511719 11.6875 37.300781 11.734375 37.089844 11.785156 C 36.945312 11.816406 36.855469 11.960938 36.890625 12.105469 C 36.917969 12.230469 37.027344 12.3125 37.148438 12.3125 " fill-opacity="1" fill-rule="nonzero"/></g><g fill="#7ed957" fill-opacity="1"><g transform="translate(6.219068, 16.607839)"><g><path d="M 9.960938 -2.527344 C 9.246094 -2.011719 9.019531 -2.40625 9.019531 -3.289062 L 9.003906 -8.425781 C 9.019531 -9.886719 8.714844 -10.496094 7.800781 -11.167969 L 5.042969 -8.867188 L 5.300781 -8.332031 C 6.214844 -8.894531 6.566406 -8.605469 6.597656 -7.664062 L 6.597656 -5.773438 L 3.59375 -5.773438 C 3.578125 -5.773438 3.59375 -8.425781 3.59375 -8.425781 C 3.609375 -9.886719 3.304688 -10.496094 2.390625 -11.167969 L -0.367188 -8.867188 L -0.105469 -8.363281 C 0.792969 -8.925781 1.15625 -8.636719 1.1875 -7.691406 L 1.1875 -2.664062 C 1.171875 -1.308594 1.707031 -0.425781 2.390625 0 L 4.921875 -2.054688 L 4.554688 -2.527344 C 3.839844 -2.011719 3.6875 -2.40625 3.609375 -3.289062 C 3.578125 -3.503906 3.566406 -3.730469 3.550781 -3.992188 L 6.003906 -3.992188 L 6.597656 -4.644531 L 6.597656 -2.664062 C 6.582031 -1.308594 7.113281 -0.425781 7.800781 0 L 10.328125 -2.054688 Z M 9.960938 -2.527344 "/></g></g></g><g fill="#7ed957" fill-opacity="1"><g transform="translate(15.724008, 16.607839)"><g><path d="M 3.457031 -3.09375 L 6.671875 -5.757812 C 6.671875 -6.765625 5.195312 -8.441406 4.035156 -8.441406 C 2.832031 -8.441406 0.960938 -6.351562 0.5625 -5.699219 C -0.503906 -3.777344 1.585938 -0.046875 3.304688 0 L 6.535156 -2.46875 L 6.214844 -2.957031 C 5.027344 -2.179688 4.128906 -2.421875 3.457031 -3.09375 Z M 2.605469 -6.703125 C 3.199219 -7.097656 4.128906 -5.851562 4.386719 -4.921875 L 3.09375 -3.824219 C 2.4375 -4.859375 1.980469 -6.246094 2.605469 -6.703125 Z M 2.605469 -6.703125 "/></g></g></g><g fill="#7ed957" fill-opacity="1"><g transform="translate(22.121549, 16.607839)"><g><path d="M 5.285156 -4.9375 L 7.265625 -6.582031 C 7.265625 -6.582031 6.167969 -8.441406 5.011719 -8.441406 L 3.457031 -6.945312 C 3.304688 -7.585938 2.957031 -7.996094 2.359375 -8.441406 L -0.367188 -6.15625 L -0.105469 -5.667969 C 0.792969 -6.246094 1.140625 -5.941406 1.171875 -5.011719 L 1.171875 -2.636719 C 1.15625 -1.308594 1.675781 -0.425781 2.359375 0 L 4.875 -2.027344 L 4.523438 -2.5 C 3.808594 -1.996094 3.566406 -2.484375 3.578125 -3.261719 L 3.566406 -5.726562 L 3.566406 -5.957031 L 3.65625 -6.046875 C 4.296875 -6.640625 4.859375 -5.652344 5.285156 -4.9375 Z M 5.285156 -4.9375 "/></g></g></g><g fill="#7ed957" fill-opacity="1"><g transform="translate(28.382001, 16.607839)"><g><path d="M 5.363281 -8.441406 L 3.367188 -6.886719 L 3.367188 -9.628906 C 3.398438 -11.089844 3.09375 -11.683594 2.179688 -12.355469 L -0.546875 -10.070312 L -0.226562 -9.597656 C 0.503906 -10.070312 0.945312 -9.796875 0.988281 -8.882812 L 0.988281 -2.621094 C 0.960938 -1.292969 1.492188 -0.425781 2.179688 0 C 2.863281 0 3.59375 -0.226562 4.234375 -0.640625 C 7.984375 -2.789062 8.941406 -6.535156 5.363281 -8.441406 Z M 3.367188 -6.003906 L 3.824219 -6.351562 C 5.242188 -6.03125 5.667969 -2.96875 4.371094 -1.460938 C 3.152344 -1.460938 3.367188 -6.003906 3.367188 -6.003906 Z M 3.367188 -6.003906 "/></g></g></g><g fill="#7ed957" fill-opacity="1"><g transform="translate(35.708714, 16.607839)"><g/></g></g><g fill="#7ed957" fill-opacity="1"><g transform="translate(39.821406, 16.607839)"><g><path d="M 13.222656 -2.527344 C 12.492188 -2.011719 12.355469 -2.40625 12.261719 -3.289062 L 12.246094 -8.425781 C 12.277344 -9.886719 11.957031 -10.496094 11.042969 -11.167969 C 9.09375 -11.167969 7.433594 -8.578125 6.445312 -5.820312 C 5.226562 -8.164062 3.777344 -11.167969 2.390625 -11.167969 L -0.367188 -8.867188 L -0.105469 -8.378906 C 0.792969 -8.941406 1.050781 -8.652344 1.082031 -7.707031 L 1.082031 -2.664062 C 1.082031 -1.308594 1.707031 -0.425781 2.390625 0 L 4.90625 -2.054688 L 4.554688 -2.527344 C 3.839844 -2.011719 3.6875 -2.40625 3.609375 -3.289062 C 3.535156 -4.035156 3.519531 -5.117188 3.535156 -6.199219 C 4.828125 -3.671875 5.820312 -0.792969 6.792969 -0.792969 L 9.003906 -2.789062 L 8.742188 -3.183594 C 8.46875 -2.941406 8.136719 -3.121094 7.769531 -3.59375 C 8.347656 -5.742188 9.0625 -8.941406 9.808594 -8.957031 L 9.839844 -2.664062 C 9.839844 -1.308594 10.359375 -0.425781 11.042969 0 L 13.574219 -2.054688 Z M 13.222656 -2.527344 "/></g></g></g><g fill="#7ed957" fill-opacity="1"><g transform="translate(52.570832, 16.607839)"><g><path d="M 7.769531 -2.484375 C 7.054688 -1.964844 6.792969 -2.5 6.808594 -3.289062 L 6.792969 -5.667969 C 6.75 -8.121094 4.84375 -8.441406 3.0625 -8.441406 L 0.183594 -6.367188 L 0.488281 -5.894531 C 1.628906 -6.597656 3.472656 -6.703125 4.144531 -5.636719 C 2.085938 -5.042969 0.578125 -4.128906 0.335938 -2.542969 C 0.183594 -1.460938 0.988281 -0.015625 2.238281 0 L 4.492188 -1.644531 C 4.585938 -0.929688 5.089844 0 5.589844 0 L 8.105469 -2.054688 Z M 3.425781 -1.8125 C 2.316406 -2.4375 2.40625 -4.203125 4.371094 -4.921875 L 4.386719 -2.4375 Z M 3.425781 -1.8125 "/></g></g></g><g fill="#7ed957" fill-opacity="1"><g transform="translate(59.85185, 16.607839)"><g><path d="M 0.335938 -9.613281 L 0.898438 -8.820312 L 3.335938 -10.390625 L 2.589844 -11.425781 Z M 4.523438 -2.511719 C 3.808594 -1.996094 3.550781 -2.484375 3.578125 -3.261719 L 3.550781 -5.726562 C 3.578125 -7.175781 3.273438 -7.769531 2.359375 -8.441406 L -0.367188 -6.167969 L -0.121094 -5.683594 C 0.777344 -6.230469 1.128906 -5.941406 1.171875 -5.011719 L 1.171875 -2.636719 C 1.171875 -1.292969 1.691406 -0.410156 2.359375 0 L 4.875 -2.027344 Z M 4.523438 -2.511719 "/></g></g></g><g fill="#7ed957" fill-opacity="1"><g transform="translate(64.086398, 16.607839)"><g><path d="M 4.523438 -2.511719 C 3.808594 -1.996094 3.566406 -2.484375 3.578125 -3.273438 L 3.566406 -9.613281 C 3.578125 -11.074219 3.273438 -11.683594 2.359375 -12.355469 L -0.367188 -10.070312 L -0.121094 -9.582031 C 0.777344 -10.144531 1.140625 -9.839844 1.15625 -8.910156 L 1.15625 -2.652344 C 1.15625 -1.308594 1.691406 -0.410156 2.359375 0 L 4.875 -2.042969 Z M 4.523438 -2.511719 "/></g></g></g></svg>