{
  "accessors": [
    {
      "bufferView": 2,
      "componentType": 5126,
      "count": 12381,
      "max": [
        7.091915130615234,
        218.53866577148438,
        -521.9395751953125
      ],
      "min": [
        -17.145816802978516,
        2.7957000732421875,
        -650.965576171875
      ],
      "type": "VEC3"
    },
    {
      "bufferView": 2,
      "byteOffset": 148572,
      "componentType": 5126,
      "count": 12381,
      "max": [
        0.9994163513183594,
        1.0,
        1.0
      ],
      "min": [
        -0.9999926090240479,
        -1.0,
        -0.999999463558197
      ],
      "type": "VEC3"
    },
    {
      "bufferView": 1,
      "componentType": 5126,
      "count": 12381,
      "max": [
        0.9986207485198975,
        0.9294278025627136
      ],
      "min": [
        0.0,
        0.0
      ],
      "type": "VEC2"
    },
    {
      "bufferView": 0,
      "componentType": 5125,
      "count": 36060,
      "type": "SCALAR"
    },
    {
      "bufferView": 2,
      "byteOffset": 297144,
      "componentType": 5126,
      "count": 9092,
      "max": [
        7.091915130615234,
        165.34681701660156,
        -523.1087646484375
      ],
      "min": [
        -17.145816802978516,
        3.06011962890625,
        -645.2574462890625
      ],
      "type": "VEC3"
    },
    {
      "bufferView": 2,
      "byteOffset": 406248,
      "componentType": 5126,
      "count": 9092,
      "max": [
        0.9994162321090698,
        1.0,
        0.9999999403953552
      ],
      "min": [
        -0.9999926090240479,
        -1.0,
        -0.9999990463256836
      ],
      "type": "VEC3"
    },
    {
      "bufferView": 1,
      "byteOffset": 99048,
      "componentType": 5126,
      "count": 9092,
      "max": [
        1.0,
        1.0
      ],
      "min": [
        0.0,
        0.0
      ],
      "type": "VEC2"
    },
    {
      "bufferView": 0,
      "byteOffset": 144240,
      "componentType": 5125,
      "count": 26340,
      "type": "SCALAR"
    },
    {
      "bufferView": 2,
      "byteOffset": 515352,
      "componentType": 5126,
      "count": 494,
      "max": [
        11.727834701538086,
        231.27825927734375,
        -516.9248657226563
      ],
      "min": [
        -35.738067626953125,
        -2.7320022583007813,
        -655.7069702148438
      ],
      "type": "VEC3"
    },
    {
      "bufferView": 2,
      "byteOffset": 521280,
      "componentType": 5126,
      "count": 494,
      "max": [
        1.0,
        1.0,
        1.0
      ],
      "min": [
        -1.0,
        -1.0,
        -1.0
      ],
      "type": "VEC3"
    },
    {
      "bufferView": 1,
      "byteOffset": 171784,
      "componentType": 5126,
      "count": 494,
      "max": [
        0.9978302717208862,
        0.9830176830291748
      ],
      "min": [
        0.0,
        0.0
      ],
      "type": "VEC2"
    },
    {
      "bufferView": 0,
      "byteOffset": 249600,
      "componentType": 5125,
      "count": 972,
      "type": "SCALAR"
    }
  ],
  "asset": {
    "extras": {
      "author": "AlexFG (https://sketchfab.com/AlexFG)",
      "license": "CC-BY-4.0 (http://creativecommons.org/licenses/by/4.0/)",
      "source": "https://sketchfab.com/3d-models/low-poly-bookshelf-3c2821afcb5e4e3e8faed3ceaaa53824",
      "title": "low poly bookshelf"
    },
    "generator": "Sketchfab-12.68.0",
    "version": "2.0"
  },
  "bufferViews": [
    {
      "buffer": 0,
      "byteLength": 253488,
      "name": "floatBufferViews",
      "target": 34963
    },
    {
      "buffer": 0,
      "byteLength": 175736,
      "byteOffset": 253488,
      "byteStride": 8,
      "name": "floatBufferViews",
      "target": 34962
    },
    {
      "buffer": 0,
      "byteLength": 527208,
      "byteOffset": 429224,
      "byteStride": 12,
      "name": "floatBufferViews",
      "target": 34962
    }
  ],
  "buffers": [
    {
      "byteLength": 956432,
      "uri": "scene.bin"
    }
  ],
  "images": [
    {
      "uri": "textures/UV_shelf_0006shelfshelfaiStandardSurface1_baseColor.jpeg"
    },
    {
      "uri": "textures/UV_shelf_0006shelfshelfaiStandardSurface2_baseColor.jpeg"
    },
    {
      "uri": "textures/UV_shelf_0006shelfaiStandardSurface1_baseColor.png"
    }
  ],
  "materials": [
    {
      "doubleSided": true,
      "name": "UV_shelf_0006shelfshelfaiStandardSurface1",
      "pbrMetallicRoughness": {
        "baseColorTexture": {
          "index": 0
        },
        "metallicFactor": 0.0,
        "roughnessFactor": 0.6
      }
    },
    {
      "doubleSided": true,
      "name": "UV_shelf_0006shelfshelfaiStandardSurface2",
      "pbrMetallicRoughness": {
        "baseColorTexture": {
          "index": 1
        },
        "metallicFactor": 0.0,
        "roughnessFactor": 0.6
      }
    },
    {
      "doubleSided": true,
      "name": "UV_shelf_0006shelfaiStandardSurface1",
      "pbrMetallicRoughness": {
        "baseColorTexture": {
          "index": 2
        },
        "metallicFactor": 0.0,
        "roughnessFactor": 0.6
      }
    }
  ],
  "meshes": [
    {
      "name": "pCube17_UV_shelf_0006:shelf:shelf:aiStandardSurface1_0",
      "primitives": [
        {
          "attributes": {
            "NORMAL": 1,
            "POSITION": 0,
            "TEXCOORD_0": 2
          },
          "indices": 3,
          "material": 0,
          "mode": 4
        }
      ]
    },
    {
      "name": "pCube17_UV_shelf_0006:shelf:shelf:aiStandardSurface2_0",
      "primitives": [
        {
          "attributes": {
            "NORMAL": 5,
            "POSITION": 4,
            "TEXCOORD_0": 6
          },
          "indices": 7,
          "material": 1,
          "mode": 4
        }
      ]
    },
    {
      "name": "pCube17_UV_shelf_0006:shelf:aiStandardSurface1_0",
      "primitives": [
        {
          "attributes": {
            "NORMAL": 9,
            "POSITION": 8,
            "TEXCOORD_0": 10
          },
          "indices": 11,
          "material": 2,
          "mode": 4
        }
      ]
    }
  ],
  "nodes": [
    {
      "children": [
        1
      ],
      "matrix": [
        1.0,
        0.0,
        0.0,
        0.0,
        0.0,
        2.220446049250313e-16,
        -1.0,
        0.0,
        0.0,
        1.0,
        2.220446049250313e-16,
        0.0,
        0.0,
        0.0,
        0.0,
        1.0
      ],
      "name": "Sketchfab_model"
    },
    {
      "children": [
        2
      ],
      "matrix": [
        1.0,
        0.0,
        0.0,
        0.0,
        0.0,
        0.0,
        1.0,
        0.0,
        0.0,
        -1.0,
        0.0,
        0.0,
        0.0,
        0.0,
        0.0,
        1.0
      ],
      "name": "2211a6d6eb8b4163998306ad55b4dd83.fbx"
    },
    {
      "children": [
        3
      ],
      "name": "RootNode"
    },
    {
      "children": [
        4,
        5,
        6
      ],
      "matrix": [
        1.0,
        0.0,
        0.0,
        0.0,
        0.0,
        1.0,
        0.0,
        0.0,
        0.0,
        0.0,
        1.0,
        0.0,
        -12.005772590637207,
        3.1757845878601074,
        519.1256713867188,
        1.0
      ],
      "name": "pCube17"
    },
    {
      "mesh": 0,
      "name": "pCube17_UV_shelf_0006:shelf:shelf:aiStandardSurface1_0"
    },
    {
      "mesh": 1,
      "name": "pCube17_UV_shelf_0006:shelf:shelf:aiStandardSurface2_0"
    },
    {
      "mesh": 2,
      "name": "pCube17_UV_shelf_0006:shelf:aiStandardSurface1_0"
    }
  ],
  "samplers": [
    {
      "magFilter": 9729,
      "minFilter": 9987,
      "wrapS": 10497,
      "wrapT": 10497
    }
  ],
  "scene": 0,
  "scenes": [
    {
      "name": "Sketchfab_Scene",
      "nodes": [
        0
      ]
    }
  ],
  "textures": [
    {
      "sampler": 0,
      "source": 0
    },
    {
      "sampler": 0,
      "source": 1
    },
    {
      "sampler": 0,
      "source": 2
    }
  ]
}
