<svg xmlns="http://www.w3.org/2000/svg" width="32" height="32" viewBox="0 0 512 512"><!-- Icon from
    Game Icons by GameIcons - https://github.com/game-icons/icons/blob/master/license.txt -->
    <path fill="#f409f8"
        d="M256.242 19.143q-1.95.011-3.896.054c-8.782.195-17.528.884-26.198 2.053l13.957 18.725L276.9 68.008l-48.474-11.682l-22.586-31.424a235.5 235.5 0 0 0-68.522 27.258l4.67 19.35l58.403 10.51l-2.335 50.812l-17.522-35.623l-53.728-9.347l-6.063-24.886a233.3 233.3 0 0 0-41.679 38.227l13.866 45.06l54.898 8.176l-68.33 13.433l-14.633-48.287a239 239 0 0 0-10.844 17.068c-12.047 20.868-20.527 42.807-25.64 65.114l49.368 23.92l49.06-.58l-49.06 21.607l-18.105-8.81v25.747h30.37l-49.058 18.69v-53.526l-16.13-7.847c-5.85 41.047-.63 82.657 14.546 120.55l21.44-23.553l12.37 11.498l34.103-12.99l-21.453 24.75l16.443 15.285l-40.296-12.264l-14.17 15.908a233.7 233.7 0 0 0 35.44 51.586l40.896-.158l-28.047 13.262a236 236 0 0 0 43.89 32.63c112.427 64.91 255.91 26.462 320.82-85.964c64.91-112.427 26.464-255.91-85.962-320.82c-21.172-12.224-43.447-20.773-66.09-25.862l9.207 25.723l-29.07-29.292a234 234 0 0 0-32.648-2.115zm81.076 126.125c21.167.245 42.198 5.62 61.43 16.72c65.644 37.893 83.97 127.31 42.557 199.026c-41.41 71.71-128.022 100.554-193.666 62.662s-83.97-127.31-42.558-199.026c28.47-49.303 78.305-78.34 128.002-79.363a130 130 0 0 1 4.234-.02zm-.59 18.67a111 111 0 0 0-3.654.023c-18.408.41-36.93 5.29-54.09 14.185l34.21 53.44a87.7 87.7 0 0 0-15.227 10.874l-34.947-54.59c-16.317 11.548-30.75 27.068-41.754 46.126a154 154 0 0 0-2.27 4.092l62.068 24.504a91.4 91.4 0 0 0-8.17 16.867l-61.72-24.366c-10.588 27.475-12.18 56.18-5.824 81.922l62.4-21.23c.464 6.36 1.638 12.59 3.516 18.544l-60.073 20.44c9.103 21.78 24.502 40.32 45.436 52.51l30.73-45a69.4 69.4 0 0 0 14.5 11.904l-28.08 41.12c20.49 7.43 42.64 8.273 64.046 3.23l.31-33.95c6.27.064 12.55-.674 18.71-2.166l-.276 30.12c12.81-5.225 25.06-12.622 36.186-22.013l-11.71-18.29a88 88 0 0 0 14.808-11.53l10.613 16.578a149 149 0 0 0 18.654-25.615c1.91-3.307 3.67-6.652 5.294-10.023l-16.094-6.354c2.808-5.71 4.987-11.582 6.504-17.522l16.633 6.566c5.45-16.308 7.792-32.934 7.25-49.018l-22.186 7.55a79 79 0 0 0-5.09-18.01l25.246-8.588c-3.6-19.748-11.75-38.048-24.008-53.122l-22.637 33.147a70 70 0 0 0-8.602-5.852a71 71 0 0 0-7.487-3.725l25.425-37.23a105.56 105.56 0 0 0-46.547-23.094l-.502 54.96c-2.52-.213-5.05-.3-7.58-.248c-3.716.073-7.43.437-11.115 1.06l.532-58.135q-1.71-.07-3.423-.09zm15.786 75.83c3.027.026 6.037.308 9.006.84c-7.354 7.116-12.168 18.937-12.168 32.326c0 21.752 12.7 39.384 28.367 39.384c12.172 0 22.55-10.647 26.577-25.597c2.1 14.36-.655 30.18-9.07 44.72c-18.287 31.595-55.212 43.19-82.24 27.623c-27.03-15.567-35.414-53.21-17.128-84.805c12.57-21.722 33.953-33.99 54.872-34.477a56 56 0 0 1 1.782-.012z" />
</svg>