<svg xmlns="http://www.w3.org/2000/svg" width="32" height="32" viewBox="0 0 24 24" fill="#FFF"><!-- Icon from
    TDesign Icons by TDesign - https://github.com/Tencent/tdesign-icons/blob/main/LICENSE -->
    <path
        d="M23 2H1v16h10.768a6.7 6.7 0 0 1 .96-4.002H3v-10h18v7.23a6.8 6.8 0 0 1 2 1.24zM3 20h9.228a6.8 6.8 0 0 0 1.24 2H3z" />
    <path
        d="M19.5 13.376V12h-2v1.376a4 4 0 0 0-1.854 1.072l-1.193-.689l-1 1.732l1.192.688a4 4 0 0 0 0 2.142l-1.192.688l1 1.732l1.193-.689a4 4 0 0 0 1.854 1.072V22.5h2v-1.376a4 4 0 0 0 1.854-1.072l1.192.689l1-1.732l-1.191-.688a4 4 0 0 0 0-2.142l1.191-.688l-1-1.732l-1.192.688a4 4 0 0 0-1.854-1.071m-2.715 2.844a2 2 0 0 1 3.43 0l.036.063c.159.287.249.616.249.967c0 .35-.09.68-.249.967l-.037.063a2 2 0 0 1-3.429 0l-.037-.063a2 2 0 0 1-.248-.967a2 2 0 0 1 .248-.967z" />
</svg>