<svg width="27" height="25" viewBox="0 0 27 25" fill="none" xmlns="http://www.w3.org/2000/svg">
<path d="M21.8333 5.21875H21.8472M17.6667 5.21875H17.6806M21.8333 19.2812H21.8472M17.6667 19.2812H17.6806M5.16667 9.4375H21.8333C23.1276 9.4375 23.7747 9.4375 24.2853 9.22341C24.9658 8.93796 25.5067 8.39043 25.7886 7.7013C26 7.18443 26 6.52921 26 5.21875C26 3.90829 26 3.25307 25.7886 2.7362C25.5067 2.04707 24.9658 1.49954 24.2853 1.21409C23.7747 1 23.1276 1 21.8333 1H5.16667C3.87239 1 3.22525 1 2.71476 1.21409C2.03414 1.49954 1.49338 2.04707 1.21144 2.7362C1 3.25307 1 3.90829 1 5.21875C1 6.52921 1 7.18443 1.21144 7.7013C1.49338 8.39043 2.03414 8.93796 2.71476 9.22341C3.22525 9.4375 3.87239 9.4375 5.16667 9.4375ZM5.16667 23.5H21.8333C23.1276 23.5 23.7747 23.5 24.2853 23.286C24.9658 23.0005 25.5067 22.4529 25.7886 21.7638C26 21.2469 26 20.5917 26 19.2812C26 17.9708 26 17.3156 25.7886 16.7987C25.5067 16.1096 24.9658 15.562 24.2853 15.2765C23.7747 15.0625 23.1276 15.0625 21.8333 15.0625H5.16667C3.87239 15.0625 3.22525 15.0625 2.71476 15.2765C2.03414 15.562 1.49338 16.1096 1.21144 16.7987C1 17.3156 1 17.9708 1 19.2812C1 20.5917 1 21.2469 1.21144 21.7638C1.49338 22.4529 2.03414 23.0005 2.71476 23.286C3.22525 23.5 3.87239 23.5 5.16667 23.5Z" stroke="white" stroke-width="1.5" stroke-linecap="round" stroke-linejoin="round"/>
</svg>
