<svg xmlns="http://www.w3.org/2000/svg" width="800" height="800" viewBox="0 0 73 73"><g fill="none" fill-rule="nonzero" transform="translate(2 2)"><rect width="71" height="71" x="-1" y="-1" fill="#000" stroke="#000" stroke-width="2" rx="14"/><path fill="#FFF" d="M58.307 21.428c-2.411-4.13-5.682-7.401-9.812-9.812C44.364 9.206 39.854 8 34.96 8c-4.891 0-9.402 1.205-13.533 3.616-4.13 2.41-7.401 5.681-9.812 9.812C9.206 25.56 8 30.07 8 34.961c0 5.875 1.714 11.158 5.143 15.85 3.429 4.693 7.858 7.94 13.287 9.742.632.117 1.1.035 1.405-.246.304-.28.456-.632.456-1.052l-.018-1.896a313.522 313.522 0 0 1-.018-3.124l-.807.14c-.515.094-1.164.134-1.949.123a14.845 14.845 0 0 1-2.44-.246 5.452 5.452 0 0 1-2.351-1.053 4.454 4.454 0 0 1-1.545-2.158l-.35-.808c-.235-.538-.603-1.135-1.107-1.79-.503-.656-1.012-1.1-1.527-1.334l-.245-.176a2.577 2.577 0 0 1-.457-.422 1.926 1.926 0 0 1-.315-.491c-.07-.164-.013-.299.175-.405.188-.105.526-.157 1.018-.157l.702.105c.468.094 1.047.374 1.738.843a5.666 5.666 0 0 1 1.702 1.825c.539.96 1.188 1.69 1.949 2.194.76.503 1.527.755 2.299.755s1.439-.059 2-.175a6.982 6.982 0 0 0 1.58-.527c.211-1.569.785-2.774 1.72-3.616-1.333-.14-2.533-.352-3.598-.632-1.064-.282-2.164-.738-3.3-1.37-1.135-.632-2.077-1.416-2.826-2.352-.748-.936-1.363-2.165-1.842-3.686-.48-1.522-.72-3.277-.72-5.266 0-2.832.925-5.243 2.774-7.232-.866-2.13-.785-4.517.245-7.161.679-.211 1.686-.053 3.02.473 1.333.527 2.31.978 2.93 1.352.621.374 1.118.691 1.493.948a24.928 24.928 0 0 1 6.74-.912c2.317 0 4.564.304 6.741.912l1.334-.842c.912-.562 1.99-1.077 3.23-1.545 1.24-.468 2.188-.597 2.844-.386 1.053 2.645 1.147 5.032.28 7.161 1.849 1.99 2.774 4.4 2.774 7.232 0 1.99-.24 3.75-.72 5.283-.48 1.534-1.099 2.762-1.86 3.687-.76.924-1.709 1.703-2.844 2.334-1.135.632-2.235 1.088-3.3 1.37-1.065.28-2.264.492-3.598.632 1.217 1.053 1.825 2.715 1.825 4.985v7.407c0 .42.146.772.44 1.052.292.28.754.363 1.386.246 5.43-1.802 9.86-5.05 13.288-9.742 3.428-4.692 5.142-9.975 5.142-15.85 0-4.89-1.207-9.401-3.616-13.532Z"/></g></svg>