<svg xmlns="http://www.w3.org/2000/svg" xml:space="preserve" viewBox="0 0 470 470"><path d="M265 132.5h40v100h-40zM165 132.5h40v100h-40z" style="fill:#7d3daf"/><path d="M405 67.5v190l-55 55h-95l-80 55v-55H85v-245h320zm-100 165v-100h-40v100h40zm-100 0v-100h-40v100h40z" style="fill:#fff"/><path d="M460 230v97.5l-60 60H250l-60 65h-55v-90H10v-290l50-55h400V230zm-55 27.5v-190H85v245h90v55l80-55h95l55-55z" style="fill:#7d3daf"/><path d="M460 7.5H60c-2.817 0-5.504 1.189-7.399 3.273l-50 55C.927 67.614 0 70.013 0 72.5v290c0 5.522 4.477 10 10 10h115v80c0 5.522 4.477 10 10 10h55c2.791 0 5.455-1.166 7.348-3.217l57.03-61.783H400c2.652 0 5.196-1.054 7.071-2.929l60-60c1.875-1.876 2.929-4.419 2.929-7.071v-310c0-5.523-4.477-10-10-10zm-10 315.857L395.858 377.5H250c-2.791 0-5.455 1.166-7.348 3.217l-57.03 61.783H145v-80c0-5.522-4.477-10-10-10H20V76.366L64.424 27.5H450v295.857z" style="fill:#231f20"/><path d="M85 322.5h80v45c0 3.714 2.058 7.121 5.345 8.851 1.462.769 3.061 1.149 4.654 1.149 1.988 0 3.968-.592 5.666-1.76l77.441-53.24H350c2.652 0 5.196-1.054 7.071-2.929l55-55c1.875-1.876 2.929-4.419 2.929-7.071v-190c0-5.522-4.477-10-10-10H85c-5.523 0-10 4.478-10 10v245c0 5.522 4.477 10 10 10zm10-245h300v175.857L345.858 302.5H255c-2.023 0-3.999.613-5.665 1.76L185 348.489V312.5c0-5.522-4.477-10-10-10H95v-225z" style="fill:#231f20"/><path d="M215 232.5v-100c0-5.522-4.477-10-10-10h-40c-5.523 0-10 4.478-10 10v100c0 5.523 4.477 10 10 10h40c5.523 0 10-4.477 10-10zm-20-10h-20v-80h20v80zM265 242.5h40c5.523 0 10-4.477 10-10v-100c0-5.522-4.477-10-10-10h-40c-5.523 0-10 4.478-10 10v100c0 5.523 4.477 10 10 10zm10-100h20v80h-20v-80z" style="fill:#231f20"/></svg>